<svg width="16" height="16" viewBox="0 0 16 16" fill="none" xmlns="http://www.w3.org/2000/svg">
<g id="dashicons:store">
<path id="Vector" d="M1.7 8.31912C1.987 8.50237 2.372 8.59084 2.75 8.59084C3.135 8.59084 3.513 8.50237 3.8 8.31912C4.234 8.02844 4.5 7.57978 4.5 7.05529C4.5 7.57978 4.759 8.02844 5.2 8.31912C5.487 8.50237 5.872 8.59084 6.25 8.59084C6.635 8.59084 7.013 8.50237 7.3 8.31912C7.734 8.02844 8 7.57978 8 7.05529C8 7.57978 8.259 8.02844 8.7 8.31912C8.987 8.50237 9.372 8.59084 9.757 8.59084C10.135 8.59084 10.513 8.50237 10.8 8.31912C11.234 8.02844 11.5 7.57978 11.5 7.05529C11.5 7.57978 11.759 8.02844 12.2 8.31912C12.487 8.50237 12.872 8.59084 13.25 8.59084C13.635 8.59084 14.013 8.50237 14.3 8.31912C14.741 8.02844 15 7.57978 15 7.05529V6.42338L12.9 2H3.8L1 6.42338V7.05529C1 7.57978 1.259 8.02844 1.7 8.31912ZM3.1 14H6.6V10.8404H9.4V14H12.9V9.57662C12.641 9.54502 12.396 9.4376 12.2 9.3049C11.759 9.02054 11.5 8.8436 11.5 8.31912C11.5 8.8436 11.234 9.02054 10.8 9.3049C10.513 9.49447 10.135 9.57662 9.757 9.58294C9.372 9.58294 8.987 9.49447 8.7 9.3049C8.259 9.02054 8 8.8436 8 8.31912C8 8.8436 7.734 9.02054 7.3 9.3049C7.013 9.49447 6.635 9.57662 6.25 9.58294C5.872 9.58294 5.487 9.49447 5.2 9.3049C4.759 9.02054 4.5 8.8436 4.5 8.3128C4.5 8.8436 4.234 9.02054 3.8 9.3049C3.597 9.4376 3.359 9.54502 3.1 9.58294V14Z" fill="#340653"/>
</g>
</svg>
