<svg width="16" height="16" viewBox="0 0 16 16" fill="none" xmlns="http://www.w3.org/2000/svg">
<g id="eva:email-fill">
<g id="evaEmailFill0">
<g id="evaEmailFill1">
<path id="evaEmailFill2" d="M12.6693 2.66663H3.33594C2.8055 2.66663 2.2968 2.87734 1.92172 3.25241C1.54665 3.62749 1.33594 4.13619 1.33594 4.66663V11.3333C1.33594 11.8637 1.54665 12.3724 1.92172 12.7475C2.2968 13.1226 2.8055 13.3333 3.33594 13.3333H12.6693C13.1997 13.3333 13.7084 13.1226 14.0835 12.7475C14.4586 12.3724 14.6693 11.8637 14.6693 11.3333V4.66663C14.6693 4.13619 14.4586 3.62749 14.0835 3.25241C13.7084 2.87734 13.1997 2.66663 12.6693 2.66663ZM12.6693 3.99996L8.33594 6.97996C8.23459 7.03847 8.11963 7.06928 8.0026 7.06928C7.88558 7.06928 7.77062 7.03847 7.66927 6.97996L3.33594 3.99996H12.6693Z" fill="#340653"/>
</g>
</g>
</g>
</svg>
