<svg width="78" height="40" viewBox="0 0 78 40" fill="none" xmlns="http://www.w3.org/2000/svg">
<g id="Group">
<g id="Group_2">
<g id="Group_3">
<path id="Vector" d="M4.39808 40.0001L10.1945 20.6767L0 22.0714L3.29778 13.5052L34.7793 5.7356L30.4823 17.8875L20.888 19.2821L15.1917 38.6055L4.39808 40.0001Z" fill="#4D2D88"/>
</g>
<path id="Vector_2" d="M77.4357 0.429796C75.2519 6.07234 74.0305 8.51216 69.5682 12.716C69.6893 10.8376 69.3629 9.20265 68.4974 7.74296C68.0794 8.24876 67.7393 8.77031 67.2981 9.16488C66.6621 9.73469 65.9946 10.3003 65.2733 10.6991C64.4594 11.1493 63.8771 10.8166 63.7202 9.93512C63.6465 9.52481 63.6297 9.07358 63.7023 8.64753C63.7897 8.13648 63.6023 7.95388 63.2211 7.73771C62.1493 7.13012 61.05 6.54561 60.1255 5.76382C58.9526 4.7732 58.9662 3.4856 59.995 2.02906C60.3856 1.47498 60.8584 0.977573 61.3301 0.411955C60.4509 -0.0266882 59.5232 -0.106441 58.5209 0.131769C37.0821 5.23912 59.0694 -0.0403303 36.5831 5.33882L31.5858 19.3827L22.4917 20.6777L16.6953 38.3073C16.6974 38.3378 19.0939 38.0083 38.5826 35.4184C38.5784 34.1119 37.676 31.5546 36.6462 31.1589C39.6724 26.7452 36.6462 31.1589 39.6724 26.7452C41.2349 26.6781 39.6724 26.7452 41.2644 26.6886C47.8789 20.1152 41.2349 26.6781 47.8578 20.1163C47.8652 20.1152 47.8726 20.1163 47.8789 20.1152C49.7363 15.1159 47.8789 20.1152 49.8321 14.7906C49.4699 17.3763 49.6067 19.8392 50.5396 22.1825C50.8302 22.0996 51.103 22.0209 51.3746 21.9432C52.6487 21.5791 53.9417 21.4154 55.2526 21.4794C58.4545 21.6347 61.1205 23.0797 63.5096 25.2173C63.8687 25.5384 64.1909 26.0915 64.5942 26.1282C65.0269 26.1681 65.5386 25.7284 66.0125 25.4849C66.5705 25.1984 67.1254 24.8994 67.834 24.5247C66.7327 23.4785 65.724 22.5214 64.7079 21.556C66.4452 21.7974 67.8477 22.6621 69.0491 23.9077C69.1944 23.8101 69.3092 23.7377 69.4187 23.6569C69.7662 23.3987 70.121 23.149 70.459 22.8751C80.6513 12.0633 77.4378 1.41832 77.4357 0.429796ZM56.9278 12.0192C57.1068 11.5564 57.251 11.1807 57.4205 10.7421C58.3113 11.2983 58.9715 12.0486 59.4738 13.0025C58.6272 12.6751 57.7859 12.3508 56.9278 12.0192Z" fill="#4D2D88"/>
</g>
</g>
</svg>
